<svg width="200" height="200" xmlns="http://www.w3.org/2000/svg">
  <!-- Фон (круг, как у Telegram) -->
  <circle cx="100" cy="100" r="100" fill="#37AEE2"/>
  
  <!-- Силуэт первого пуделя (слева) -->
  <path d="M70 120 Q60 100 70 80 Q80 70 90 80 Q100 90 90 110 Q80 130 70 120 Z M75 90 Q80 85 85 90 Q80 95 75 90 Z" fill="#FFFFFF"/>
  
  <!-- Силуэт второго пуделя (в центре) -->
  <path d="M100 130 Q90 110 100 90 Q110 80 120 90 Q130 100 120 120 Q110 140 100 130 Z M105 100 Q110 95 115 100 Q110 105 105 100 Z" fill="#FFFFFF"/>
  
  <!-- Силуэт третьего пуделя (справа) -->
  <path d="M130 120 Q120 100 130 80 Q140 70 150 80 Q160 90 150 110 Q140 130 130 120 Z M135 90 Q140 85 145 90 Q140 95 135 90 Z" fill="#FFFFFF"/>
</svg>
